<svg version="1.2" xmlns="http://www.w3.org/2000/svg" viewBox="0 0 1508 199" width="1508" height="199">
	<title>full-logo-svg</title>
	<style>
		.s0 { fill: #ffffff } 
	</style>
	<path id="Layer" fill-rule="evenodd" class="s0" d="m375.3 37.9h-38.4v-28.1h106.9v28.1h-38.8v116.2h-29.7zm68.6 14.6h27.8v16.3c3.5-10 13.8-17.5 25.2-17.5 3 0 5.9 0.2 9.3 1.2v28.3c-4.2-1.4-7.9-2.2-12.6-2.2-13.2 0-21.9 10.1-21.9 27v48.5h-27.8zm68 50.8c0-28.6 20.7-53 47.8-53 14 0 24.6 7.1 29.2 13.6v-11.4h27.9v101.6h-27.9v-11.3c-4.6 6.5-15.2 13.6-29.2 13.6-27.1 0-47.8-24.4-47.8-53.1zm79.3 0c0-16-10.2-27.6-25.6-27.6-15.5 0-25.6 11.6-25.6 27.6 0 16.1 10.1 27.7 25.6 27.7 15.4 0 25.6-11.6 25.6-27.7zm44.1 0c0-28.6 20.7-53 47.8-53 14 0 24.5 7.1 29.2 13.6v-62.2h27.9v152.4h-27.9v-11.3c-4.7 6.5-15.2 13.6-29.2 13.6-27.1 0-47.8-24.4-47.8-53.1zm79.2 0c0-16-10.1-27.6-25.6-27.6-15.4 0-25.6 11.6-25.6 27.6 0 16.1 10.2 27.7 25.6 27.7 15.5 0 25.6-11.6 25.6-27.7zm46.8-85.1c0-9.7 8.1-17.7 17.7-17.7 10 0 17.9 8 17.9 17.7 0 9.8-7.9 17.7-17.9 17.7-9.6 0-17.7-7.9-17.7-17.7zm3.9 34.3h27.8v101.6h-27.8zm52.5 0h27.9v11.6c5.4-8.1 15.8-13.8 29-13.8 24.6 0 39.2 17.9 39.2 44.3v59.5h-27.8v-54.8c0-14.7-6.3-23.6-17.9-23.6-13 0-22.5 9.4-22.5 28.9v49.5h-27.9zm116.4 129.9l15.2-20.7c9 8.7 20.3 12.6 31.7 12.6 16.5 0 27.2-11.6 27.2-27.9v-6.9c-5.4 7.5-16.4 13.4-29.4 13.4-26.6 0-48-22.7-48-51.2 0-28.6 21.4-51.4 48-51.4 13 0 24 5.7 29.4 13.6v-11.4h27.9v93.7c0 36.6-23.6 52.4-54.7 52.4-17.7 0-35.7-5-47.3-16.2zm76.4-80.7c0-15.6-11.8-26-25.8-26-14 0-25.8 10.4-25.8 26 0 15.5 11.8 26 25.8 26 14 0 25.8-10.5 25.8-26zm24.9-91.8h31.9l40.9 100.1 40.2-100.1h32.5l-59.7 144.2h-26.3zm153.4 8.4c0-9.8 8.1-17.7 17.7-17.7 9.9 0 17.9 7.9 17.9 17.7 0 9.7-8 17.7-17.9 17.7-9.6 0-17.7-8-17.7-17.7zm3.9 34.3h27.8v101.6h-27.8zm46 50.8c0-30.1 22.5-53 53.4-53 26.6 0 50 16.8 50 50 0 2.4 0.2 5.2-0.4 9.5h-76c1.6 13.6 13.6 21.1 27 21.1 12.8 0 21.6-5.6 26.3-12.8l20.7 15.5c-9.6 13.8-25.8 22.7-47.2 22.7-30.2 0-53.8-20.9-53.8-53zm75.6-12.4c-2.5-12.2-12.6-17.7-23-17.7-10.3 0-21.9 5.3-24.6 17.7zm113.1 5.5l-18.9 57.7h-27.7l-33.7-101.6h29.7l19.3 65 20.5-65h21.3l20.8 65 19.1-65h29.8l-33.5 101.6h-27.6zm-1315 57.8h-53.5v-90.9h-58.8v-53.5h112.3zm80.2-112.3c0 17.8-14.4 32.1-32.1 32.1-17.7 0-32.1-14.3-32.1-32.1 0-17.7 14.4-32 32.1-32 17.7 0 32.1 14.3 32.1 32zm-32.1 112.3l61.5-144.3h64.1l-61.4 144.3z"/>
</svg>